HIERARCHY
ROOT Hips
{
 OFFSET 0.000000 0.000000 0.000000
 CHANNELS 6 Xposition Yposition Zposition Yrotation Xrotation Zrotation
 JOINT Chest
 {
  OFFSET 0.000000 9.585900 0.002600
  CHANNELS 3 Yrotation Xrotation Zrotation
  JOINT Chest2
  {
   OFFSET 0.000000 9.601200 -0.005300
   CHANNELS 3 Yrotation Xrotation Zrotation
   JOINT Chest3
   {
    OFFSET 0.000000 9.561800 0.000000
    CHANNELS 3 Yrotation Xrotation Zrotation
    JOINT Chest4
    {
     OFFSET 0.000000 9.552100 0.000000
     CHANNELS 3 Yrotation Xrotation Zrotation
     JOINT Neck
     {
      OFFSET 0.000000 14.453000 0.000000
      CHANNELS 3 Yrotation Xrotation Zrotation
      JOINT Head
      {
       OFFSET 0.000000 8.936500 -0.011300
       CHANNELS 3 Yrotation Xrotation Zrotation
       End Site
       {
        OFFSET 0.000000 17.073600 -0.006000
       }
      }
     }
     JOINT RightCollar
     {
      OFFSET -2.921100 9.558500 0.000000
      CHANNELS 3 Yrotation Xrotation Zrotation
      JOINT RightShoulder
      {
       OFFSET -13.519700 0.000000 0.000000
       CHANNELS 3 Yrotation Xrotation Zrotation
       JOINT RightElbow
       {
        OFFSET 0.000000 -29.696600 0.000000
        CHANNELS 3 Yrotation Xrotation Zrotation
        JOINT RightWrist
        {
         OFFSET 0.000000 -24.004700 0.000000
         CHANNELS 3 Yrotation Xrotation Zrotation
         End Site
         {
          OFFSET 0.000000 -17.728500 0.000000
         }
        }
       }
      }
     }
     JOINT LeftCollar
     {
      OFFSET 2.921100 9.558500 0.000000
      CHANNELS 3 Yrotation Xrotation Zrotation
      JOINT LeftShoulder
      {
       OFFSET 13.519700 0.000000 0.000000
       CHANNELS 3 Yrotation Xrotation Zrotation
       JOINT LeftElbow
       {
        OFFSET 0.000000 -29.696600 0.000000
        CHANNELS 3 Yrotation Xrotation Zrotation
        JOINT LeftWrist
        {
         OFFSET 0.000000 -24.004700 0.000000
         CHANNELS 3 Yrotation Xrotation Zrotation
         End Site
         {
          OFFSET 0.000000 -17.728500 0.000000
         }
        }
       }
      }
     }
    }
   }
  }
 }
 JOINT RightHip
 {
  OFFSET -7.771700 -0.012900 -0.001300
  CHANNELS 3 Yrotation Xrotation Zrotation
  JOINT RightKnee
  {
   OFFSET 0.000000 -40.869800 0.001200
   CHANNELS 3 Yrotation Xrotation Zrotation
   JOINT RightAnkle
   {
    OFFSET 0.000000 -39.717900 0.002100
    CHANNELS 3 Yrotation Xrotation Zrotation
    JOINT RightToe
    {
     OFFSET 0.000000 -4.965400 11.033500
     CHANNELS 3 Yrotation Xrotation Zrotation
     End Site
     {
      OFFSET 0.000000 -1.423100 5.872300
     }
    }
   }
  }
 }
 JOINT LeftHip
 {
  OFFSET 7.771700 -0.012900 -0.001300
  CHANNELS 3 Yrotation Xrotation Zrotation
  JOINT LeftKnee
  {
   OFFSET 0.000000 -40.869800 0.001200
   CHANNELS 3 Yrotation Xrotation Zrotation
   JOINT LeftAnkle
   {
    OFFSET 0.000000 -39.717900 0.002100
    CHANNELS 3 Yrotation Xrotation Zrotation
    JOINT LeftToe
    {
     OFFSET 0.000000 -4.965400 11.033500
     CHANNELS 3 Yrotation Xrotation Zrotation
     End Site
     {
      OFFSET 0.000000 -1.423100 5.872300
     }
    }
   }
  }
 }
}
MOTION
Frames: 8
Frame Time: 0.008333
0.000000 85.388000 0.000000 0.000000 -5.767877 0.000000 0.000000 11.653817 0.000000 0.000000 -5.885947 0.000000 0.000000 -0.000000 0.000000 0.000000 -0.000000 0.000000 0.000000 12.528835 0.000000 0.000000 0.711642 0.000000 0.000000 -0.000000 0.000000 0.000000 0.000000 -90.000000 0.000000 -2.309062 0.000000 0.000000 2.309062 0.000000 0.000000 -0.000000 0.000000 0.000000 -0.000000 90.000000 0.000000 -2.309062 0.000000 0.000000 2.309062 0.000000 0.000000 8.520406 0.000000 0.000000 1.905762 0.000000 -0.000000 -4.658285 0.000000 0.000000 -0.000000 0.000000 0.000000 8.520406 0.000000 0.000000 1.905762 0.000000 -0.000000 -4.658285 0.000000 0.000000 -0.000000 0.000000
-100.606922 62.047111 18.975102 174.041473 -50.291087 -0.370893 4.548724 27.107139 1.739789 0.633358 4.678336 0.259557 1.032835 7.409188 0.440172 3.356482 21.951150 1.770983 0.395534 15.284206 0.086234 0.740432 -7.434136 0.004859 7.281020 4.232867 4.594785 -3.784174 -10.467445 -14.407788 -124.901944 -62.459266 156.058490 13.072684 -3.247079 -1.930735 -10.451922 1.977894 -0.543552 -7.463689 -5.601204 15.934626 170.289853 -70.761828 175.911519 1.001150 -9.801975 -1.492312 3.025019 -16.844285 -4.841458 -2.681948 59.671151 -6.594219 1.443082 -4.230210 10.416113 0.214837 -0.664387 0.094683 -4.145569 -13.235148 3.465477 30.824755 75.371712 32.979905 1.519036 -11.524573 -5.936387 0.363121 0.780921 0.176713
-100.608280 62.046879 18.977211 174.026573 -50.301006 -0.356460 4.544910 27.112870 1.729643 0.631324 4.679499 0.257840 1.031345 7.410428 0.439385 3.360614 21.953687 1.770455 0.414567 15.276035 0.082920 0.899354 -7.521384 -0.048615 7.299411 4.225699 4.580889 -3.796816 -10.474180 -14.362124 -124.480139 -62.647631 155.676470 13.027201 -3.200161 -1.959141 -10.467257 1.970361 -0.542920 -7.430081 -5.589189 15.915056 170.369097 -70.839560 175.837007 1.005933 -9.838397 -1.497391 3.035366 -16.832325 -4.840214 -2.696202 59.660828 -6.616857 1.449484 -4.222837 10.431590 0.211065 -0.660194 0.087903 -4.124297 -13.226389 3.478733 30.789815 75.375990 32.929282 1.514984 -11.523801 -5.911623 0.352163 0.780387 0.169040
-100.608013 62.045976 18.980319 174.028231 -50.307074 -0.366475 4.534134 27.115687 1.730365 0.633005 4.676409 0.255770 1.030484 7.410958 0.438798 3.364723 21.959872 1.772932 0.512869 15.211881 0.070117 1.000180 -7.561016 -0.076291 7.311658 4.223566 4.573830 -3.800190 -10.473753 -14.353262 -124.078870 -62.811941 155.306838 12.964273 -3.159369 -1.999987 -10.484658 1.960386 -0.539390 -7.396061 -5.581930 15.892767 170.454885 -70.918306 175.756463 0.986121 -9.763448 -1.474856 3.031487 -16.826405 -4.830034 -2.700058 59.654971 -6.622335 1.451469 -4.213876 10.438351 0.208152 -0.659700 0.083648 -4.105560 -13.224521 3.514604 30.695582 75.391255 32.832007 1.487210 -11.522870 -5.899815 0.372286 0.776899 0.177380
-100.608636 62.045696 18.982928 174.024675 -50.318815 -0.368260 4.517396 27.110273 1.716461 0.645756 4.687295 0.261876 1.027122 7.406583 0.437340 3.349627 21.958035 1.765000 0.622235 15.168492 0.062919 1.144798 -7.616801 -0.113506 7.340223 4.234075 4.574906 -3.805267 -10.477191 -14.331717 -123.733461 -62.995160 154.992338 12.892639 -3.122223 -2.050218 -10.492492 1.953287 -0.521862 -7.339753 -5.571863 15.857772 170.537442 -70.989903 175.666689 0.974551 -9.731735 -1.459281 3.030419 -16.815523 -4.823269 -2.699890 59.651924 -6.626068 1.448255 -4.206611 10.442206 0.210967 -0.658978 0.083957 -4.092192 -13.215315 3.531673 30.653372 75.400392 32.787146 1.484994 -11.523756 -5.890753 0.371113 0.775982 0.178012
-100.608305 62.044611 18.986298 174.009560 -50.324483 -0.368289 4.522024 27.102191 1.721061 0.653640 4.697921 0.264541 1.018634 7.393798 0.434269 3.358243 21.970112 1.767181 0.714700 15.117855 0.057853 1.334950 -7.684430 -0.160054 7.345795 4.226029 4.566265 -3.806753 -10.468885 -14.309939 -123.428501 -63.163439 154.704984 12.836371 -3.081234 -2.102819 -10.495727 1.952514 -0.517373 -7.329084 -5.571197 15.851260 170.618008 -71.045955 175.600784 0.976928 -9.715097 -1.449648 3.037373 -16.811869 -4.811450 -2.701281 59.645827 -6.626991 1.450092 -4.195041 10.445502 0.213400 -0.659854 0.083615 -4.071071 -13.212210 3.552569 30.611036 75.408959 32.751552 1.487191 -11.521580 -5.890642 0.371465 0.772837 0.180968
-100.609729 62.043478 18.989364 173.994124 -50.329550 -0.357728 4.520656 27.094164 1.713463 0.653552 4.695564 0.264569 1.021575 7.396390 0.434980 3.355301 21.966523 1.765366 0.832924 15.075815 0.054465 1.563230 -7.754027 -0.208468 7.365461 4.236109 4.557273 -3.814974 -10.462865 -14.288551 -123.165827 -63.309432 154.453084 12.806938 -3.029001 -2.157329 -10.490679 1.965473 -0.516213 -7.308051 -5.581936 15.838817 170.697508 -71.096691 175.523919 0.988273 -9.707164 -1.447911 3.050449 -16.804870 -4.813146 -2.706597 59.635166 -6.626180 1.447549 -4.192263 10.445631 0.215725 -0.651190 0.085183 -4.053751 -13.208980 3.561069 30.614691 75.409722 32.744807 1.509748 -11.521717 -5.880576 0.354799 0.775465 0.175917
-100.611848 62.042760 18.991745 173.984000 -50.337432 -0.345979 4.513316 27.089128 1.698767 0.654002 4.693975 0.266474 1.029561 7.406886 0.437191 3.345655 21.949692 1.761103 0.969010 15.035189 0.053065 1.831189 -7.822342 -0.256152 7.384231 4.247874 4.547497 -3.821525 -10.453578 -14.263168 -122.970902 -63.440878 154.261671 12.795957 -2.965406 -2.213908 -10.487400 1.976164 -0.517158 -7.287406 -5.593565 15.826280 170.777842 -71.145070 175.448963 1.011860 -9.722800 -1.461561 3.059837 -16.795469 -4.818233 -2.702913 59.628866 -6.622016 1.439443 -4.192387 10.446263 0.218038 -0.643579 0.087971 -4.038294 -13.202727 3.563833 30.615117 75.408862 32.734980 1.528446 -11.520966 -5.864821 0.323968 0.776860 0.161891
